<svg width="512"
    height="512"
    xmlns="http://www.w3.org/2000/svg"
    viewBox="0 0 14 14"
>
    <path fill="currentColor"
        fill-rule="evenodd"
        d="M3.657.475C4.731.355 5.852.25 7 .25s2.269.105 3.343.225a3.63 3.63 0 0 1 3.194 3.203c.115 1.069.213 2.182.213 3.322s-.098 2.253-.213 3.322a3.63 3.63 0 0 1-3.194 3.203c-1.074.12-2.195.225-3.343.225s-2.269-.105-3.343-.225a3.63 3.63 0 0 1-3.194-3.203C.348 9.253.25 8.14.25 7s.098-2.253.213-3.322A3.63 3.63 0 0 1 3.657.475m4.675 2.407a.625.625 0 0 0-1.234.141V8.8a1.552 1.552 0 1 1-1.552-1.552a.625.625 0 1 0 0-1.25A2.802 2.802 0 1 0 8.348 8.8V5.31c.6.51 1.374.79 2.282.79a.625.625 0 1 0 0-1.25c-.66 0-1.15-.204-1.511-.525c-.368-.328-.641-.816-.787-1.443"
        clip-rule="evenodd"
    />
</svg>